<?xml version="1.0" encoding="UTF-8"?>
<svg id="Calque_2" data-name="Calque 2" xmlns="http://www.w3.org/2000/svg" viewBox="0 0 72.21 54.66">
  <defs>
    <style>
      .cls-1 {
        fill: #0e587d;
      }

      .cls-2 {
        fill: #9c3;
      }

      .cls-3 {
        fill: #693;
      }

      .cls-4 {
        fill: #9cf;
      }

      .cls-5 {
        fill: #fff;
      }

      .cls-6 {
        fill: #c33;
      }
    </style>
  </defs>
  <g id="Layer_1" data-name="Layer 1">
    <g>
      <path class="cls-1" d="M51.74,52.45c5.77-.6,9.5-3.57,10.24-7.84.77-4.47-2.35-9.28-9.64-12.22-6.59-2.66-22.34-4.12-38.42-.57-16.58,3.66-19.92,18.91-1.39,22.31,9.23,1.7,17.1-1.18,21.76-1.66,7.12-.74,10.96.65,17.46-.02Z"/>
      <path class="cls-3" d="M51.74,51.35c5.77-.6,9.5-3.57,10.24-7.84.77-4.47-2.35-9.28-9.64-12.22-6.59-2.66-22.34-4.12-38.42-.57-16.58,3.66-19.92,18.91-1.39,22.31,9.23,1.7,17.1-1.18,21.76-1.66,7.12-.74,10.96.65,17.46-.02Z"/>
      <g>
        <path class="cls-2" d="M15.72,53.45c2.15.17,4.2.13,6.13-.04v-24.05c-2.02.26-4.07.58-6.13.99v23.1Z"/>
        <path class="cls-2" d="M34.12,28.62c-1.97-.01-4.02.04-6.13.16v23.73c2.39-.46,4.46-.93,6.13-1.12v-22.77Z"/>
        <path class="cls-2" d="M52.51,51.25c2.48-.36,4.56-1.18,6.13-2.36v-13.75c-1.53-1.42-3.57-2.71-6.13-3.77v19.89Z"/>
        <path class="cls-2" d="M40.25,51.18c2.14.07,4.07.26,6.13.33v-21.83c-1.84-.34-3.9-.61-6.13-.79v22.29Z"/>
        <path class="cls-2" d="M3.46,49.37c1.51,1.2,3.55,2.21,6.13,2.96v-20.29c-2.52,1.01-4.57,2.33-6.13,3.81v13.51Z"/>
      </g>
      <g>
        <rect class="cls-4" x="49.98" y=".21" width="1.69" height="35.46"/>
        <rect class="cls-5" x="50.32" y=".21" width=".34" height="35.46"/>
        <path class="cls-6" d="M51.68.6s3.29-1.21,6.68-.19c3.68,1.11,4.76,3.14,8.1,3.81,2.97.59,5.75-.44,5.75-.44,0,0-1.16,3.47-5.68,4.19-4.38.7-6.75-.72-9.68-.72-3.16,0-5.17,1.18-5.17,1.18V.6Z"/>
      </g>
      <g>
        <ellipse class="cls-1" cx="40.25" cy="39.22" rx="8.01" ry="2.32"/>
        <path class="cls-4" d="M40.25,41.54c1.95,0,3.74-.2,5.13-.54-1-.52-2.92-.87-5.13-.87s-4.13.35-5.13.87c1.39.34,3.18.54,5.13.54Z"/>
      </g>
      <g>
        <path class="cls-1" d="M23.01,26.72c0,3.07-2.49,5.55-5.55,5.55s-5.55-2.49-5.55-5.55,2.49-5.55,5.55-5.55,5.55,2.49,5.55,5.55Z"/>
        <path class="cls-5" d="M22.73,26.72c0,2.91-2.36,5.27-5.27,5.27s-5.27-2.36-5.27-5.27,2.36-5.27,5.27-5.27,5.27,2.36,5.27,5.27Z"/>
        <path class="cls-1" d="M17.46,29.06c-1.65,0-3.68-.42-5.25-1.84.25,2.68,2.51,4.77,5.25,4.77s5-2.09,5.25-4.77c-1.56,1.42-3.6,1.84-5.25,1.84Z"/>
        <path class="cls-1" d="M12.42,27.52c-.03-.07-.07-.12-.11-.14,0,0-.02,0-.02,0-.01,0-.03,0-.04.02,0,0,0,0,0,.01,0-.11,0-.19.03-.21.04.01.1.14.15.33Z"/>
        <path class="cls-1" d="M13.81,26.85c-.1-.19-.26-.31-.44-.31-.16,0-.29.1-.37.26.02-.29.17-.52.37-.53h.01c.22,0,.4.26.42.58Z"/>
        <path class="cls-1" d="M13.69,25.71c.05-.32.28-.59.54-.62.02,0,.04,0,.05,0,.11,0,.22.05.3.13.1.11.16.27.16.45-.1-.18-.28-.3-.49-.3-.02,0-.04,0-.06,0-.21.02-.4.15-.5.34Z"/>
        <path class="cls-1" d="M12.44,25.83c-.02-.06-.05-.09-.09-.09-.01,0-.02,0-.03,0-.02,0-.04.03-.05.05.03-.13.07-.23.11-.25,0,0,0,0,.01,0,0,0,0,0,.01,0,.02.03.04.12.04.27Z"/>
        <path class="cls-1" d="M12.63,26.75c-.05-.12-.13-.2-.21-.2-.06,0-.11.05-.15.13.02-.2.09-.34.15-.35h0c.09,0,.17.16.2.42Z"/>
        <path class="cls-1" d="M20.98,25.7c-.11-.19-.31-.33-.52-.35-.02,0-.04,0-.06,0-.22,0-.41.12-.51.3,0-.18.06-.34.16-.45.09-.09.2-.14.32-.14.02,0,.04,0,.05,0,.27.03.51.31.56.63Z"/>
        <path class="cls-1" d="M21.52,24.74c-.1-.15-.25-.27-.4-.31-.04,0-.07-.01-.11-.01-.14,0-.25.07-.3.19-.01-.14.01-.26.08-.34.05-.05.11-.08.18-.08.03,0,.06,0,.09.01.19.05.39.28.47.53Z"/>
        <path class="cls-1" d="M20.07,24.51c-.14-.2-.37-.34-.62-.36-.03,0-.06,0-.09,0-.24,0-.43.1-.54.27,0-.14.04-.27.13-.37.09-.1.23-.16.38-.16.02,0,.05,0,.07,0,.31.04.6.31.66.62Z"/>
        <path class="cls-1" d="M21.73,24.01c-.08-.09-.16-.17-.25-.21-.05-.02-.09-.03-.13-.03-.07,0-.12.03-.14.09-.02-.1-.02-.18.01-.22.02-.02.04-.03.07-.03s.06,0,.1.03c.12.06.25.21.34.38Z"/>
        <path class="cls-1" d="M16.67,24.38c.03-.33.34-.6.71-.6.37,0,.68.27.71.6-.14-.21-.41-.34-.71-.34-.3,0-.57.13-.71.34Z"/>
        <path class="cls-1" d="M19.19,25.62c-.14-.23-.41-.38-.71-.39h-.03c-.3,0-.56.14-.7.36,0-.18.07-.35.2-.47.13-.13.3-.2.49-.2h.02c.37.01.69.32.72.7Z"/>
        <path class="cls-1" d="M15.49,25.63c.03-.37.34-.68.71-.69h.03c.18,0,.35.07.48.2.12.13.19.29.2.47-.13-.22-.39-.36-.69-.36h-.03c-.3,0-.56.16-.7.38Z"/>
        <path class="cls-1" d="M14.64,24.52c.06-.31.35-.58.65-.61.03,0,.05,0,.08,0,.15,0,.28.05.37.15.09.1.13.23.13.37-.1-.17-.29-.27-.52-.27-.03,0-.06,0-.09,0-.25.03-.48.17-.61.36Z"/>
        <path class="cls-1" d="M13.17,27.84c-.09-.16-.21-.27-.33-.29-.01,0-.03,0-.04,0-.08,0-.15.05-.19.15,0-.14.02-.27.08-.34.03-.03.06-.05.1-.05,0,0,.01,0,.02,0,.15.02.3.25.36.53Z"/>
        <path class="cls-1" d="M12.63,25.79c.05-.24.17-.43.3-.47.01,0,.03,0,.04,0,.04,0,.08.02.11.05.07.08.11.22.1.39-.05-.13-.15-.2-.26-.2-.02,0-.03,0-.05,0-.1.02-.19.11-.26.23Z"/>
        <path class="cls-1" d="M12.51,24.95c.06-.16.15-.29.22-.34.02-.01.03-.02.05-.02.01,0,.03,0,.04.02.03.03.05.12.03.27-.02-.07-.06-.1-.12-.1-.02,0-.05,0-.07.02-.05.03-.1.08-.14.14Z"/>
        <path class="cls-1" d="M18.03,26.91c-.14-.24-.43-.39-.75-.39-.32,0-.6.15-.74.39,0-.19.08-.37.22-.51.14-.14.33-.22.53-.22.2,0,.39.08.53.22.14.14.21.32.22.51Z"/>
        <path class="cls-1" d="M19.8,28.11c.04-.36.32-.66.63-.68,0,0,.02,0,.02,0,.12,0,.23.05.31.14.09.1.14.26.13.42-.08-.16-.24-.26-.44-.26-.02,0-.03,0-.05,0-.24.02-.47.17-.61.38Z"/>
        <path class="cls-1" d="M16.82,28.2c-.14-.22-.42-.38-.73-.38h-.03c-.28,0-.53.13-.64.33,0-.17.06-.33.17-.46.12-.13.29-.2.47-.2h.01c.39,0,.72.32.74.71Z"/>
        <path class="cls-1" d="M15.71,26.9c-.13-.23-.39-.37-.66-.37-.26,0-.49.13-.6.35.01-.36.28-.66.61-.67h.01c.35,0,.64.31.65.69Z"/>
        <path class="cls-1" d="M18.82,26.91c.01-.39.31-.7.67-.7h.01c.34,0,.62.31.63.68-.12-.22-.35-.35-.63-.35-.29,0-.55.15-.69.38Z"/>
        <path class="cls-1" d="M17.67,28.2c.01-.39.34-.7.74-.71h0c.2,0,.38.07.5.21.12.12.18.29.18.46-.12-.21-.37-.34-.67-.34h-.02c-.31,0-.59.16-.73.38Z"/>
        <path class="cls-1" d="M14.7,28.08c-.13-.21-.35-.35-.57-.37-.02,0-.03,0-.05,0-.18,0-.33.09-.41.25,0-.16.04-.31.13-.41.07-.08.17-.13.28-.13,0,0,.02,0,.02,0,.29.02.55.31.59.66Z"/>
        <path class="cls-1" d="M16.13,21.99c.09-.12.31-.22.55-.24.03,0,.06,0,.09,0,.16,0,.3.04.37.11.02.02.03.04.03.06-.08-.06-.24-.1-.41-.1-.04,0-.07,0-.11,0-.2.02-.39.08-.52.17Z"/>
        <path class="cls-1" d="M20.79,26.86c.02-.33.22-.6.45-.6h.01c.21.01.38.25.4.55-.08-.16-.22-.27-.39-.27h0c-.19,0-.37.12-.47.32Z"/>
        <path class="cls-1" d="M22.27,24.94c-.05-.07-.1-.13-.15-.15-.03-.01-.05-.02-.07-.02-.06,0-.1.04-.13.11-.02-.15,0-.24.03-.27.01-.01.02-.02.04-.02.01,0,.03,0,.05.02.08.05.17.18.23.35Z"/>
        <path class="cls-1" d="M22.06,26.77c.02-.25.11-.44.22-.44.08,0,.16.16.18.37-.04-.09-.1-.14-.17-.14h0c-.09,0-.18.08-.24.21Z"/>
        <path class="cls-1" d="M22.38,27.57c.05-.21.12-.35.18-.37,0,0,0,0,0,0,0,0,0,0,.01,0,.02.03.04.11.04.23,0,0-.01-.02-.02-.03-.01-.01-.03-.02-.05-.02,0,0-.02,0-.02,0-.05.02-.1.09-.14.17Z"/>
        <path class="cls-1" d="M22.11,25.78c-.07-.13-.17-.22-.28-.24-.02,0-.03,0-.05,0-.12,0-.22.08-.27.21,0-.17.04-.31.11-.39.04-.04.08-.06.13-.06.01,0,.03,0,.04,0,.14.03.27.24.32.48Z"/>
        <path class="cls-1" d="M22.4,25.83c0-.15.02-.25.05-.28,0,0,.01,0,.02,0,0,0,0,0,.01,0,.04.02.08.12.12.26-.02-.03-.04-.06-.07-.07-.01,0-.02,0-.03,0-.04,0-.07.03-.1.1Z"/>
        <path class="cls-1" d="M18.86,22.02c-.13-.09-.32-.15-.52-.18-.05,0-.09,0-.14,0-.16,0-.3.03-.38.09,0-.02.01-.04.03-.06.06-.06.18-.1.34-.1.04,0,.07,0,.11,0,.24.03.46.13.55.25Z"/>
        <path class="cls-1" d="M20.15,22.32c-.1-.07-.22-.13-.33-.16-.09-.03-.17-.04-.23-.04s-.12.02-.15.05c0-.02-.01-.05,0-.08.02-.02.06-.04.11-.04s.12.01.19.04c.15.05.3.14.42.24Z"/>
        <path class="cls-1" d="M18.07,22.53c-.12-.13-.35-.22-.61-.22-.25,0-.48.08-.6.21v-.02s-.02.01-.02.01c.04-.19.3-.34.6-.34h.01c.31,0,.57.15.62.34h0s0,.01,0,.01Z"/>
        <path class="cls-1" d="M19.78,22.76c-.13-.13-.34-.24-.55-.28-.05,0-.11-.01-.16-.01-.16,0-.28.05-.35.13v-.02s-.02.01-.02.01c0-.06,0-.11.04-.15.05-.06.16-.1.28-.1.04,0,.09,0,.14.01h.02c.25.05.5.22.6.4h0Z"/>
        <path class="cls-1" d="M19.09,23.41c-.14-.17-.38-.29-.64-.31-.03,0-.05,0-.07,0-.24,0-.45.09-.56.24,0-.1.04-.19.11-.27.1-.1.26-.16.43-.16.02,0,.04,0,.06,0,.32.03.61.25.67.5Z"/>
        <path class="cls-1" d="M20.71,23.68c-.13-.15-.31-.27-.49-.31-.05-.01-.1-.02-.15-.02-.15,0-.27.06-.33.16-.01-.1,0-.19.06-.25.05-.06.13-.09.23-.09.04,0,.08,0,.12.02.23.06.47.27.57.5Z"/>
        <path class="cls-1" d="M14.75,22.29c.12-.1.28-.19.43-.24.07-.02.14-.03.19-.03.06,0,.11.02.12.04.01.02.01.04,0,.07-.03-.03-.09-.05-.17-.05-.07,0-.15.01-.23.04-.12.04-.24.1-.35.17Z"/>
        <path class="cls-1" d="M21.03,23.13c-.1-.1-.22-.19-.34-.24-.07-.03-.13-.04-.18-.04-.07,0-.12.02-.15.07v-.02s-.01.01-.01.01c-.02-.07-.02-.12,0-.15.02-.03.06-.04.09-.04.04,0,.09.01.15.04h.01c.15.07.32.22.43.37Z"/>
        <path class="cls-1" d="M15.75,23.41c.06-.26.35-.48.67-.5.02,0,.04,0,.06,0,.17,0,.33.06.43.17.07.08.11.17.11.27-.11-.15-.32-.24-.56-.24-.02,0-.05,0-.07,0-.26.02-.51.14-.65.31Z"/>
        <path class="cls-1" d="M15.08,22.73c.09-.18.35-.35.6-.39h.01s.09-.02.14-.02c.13,0,.23.04.29.1.04.04.05.1.04.15h0s0,0,0,0c-.07-.08-.2-.13-.36-.13-.05,0-.1,0-.15.01-.21.04-.42.15-.55.28h0Z"/>
        <path class="cls-1" d="M21.43,27.88c.06-.3.23-.54.4-.56,0,0,.01,0,.02,0,.05,0,.09.02.12.06.06.07.1.2.09.35-.04-.1-.12-.16-.22-.16-.01,0-.03,0-.04,0-.14.02-.27.14-.37.31Z"/>
        <path class="cls-1" d="M14.08,23.68c.1-.23.33-.44.56-.5.04-.01.09-.02.12-.02.1,0,.17.03.22.09.05.06.07.15.06.25-.06-.1-.18-.16-.32-.16-.05,0-.1,0-.15.02-.18.04-.37.16-.49.31Z"/>
        <path class="cls-1" d="M13.23,24.75c.08-.25.27-.47.46-.53.03,0,.06-.01.09-.01.07,0,.13.03.17.08.06.07.09.19.08.33-.06-.12-.16-.19-.29-.19-.03,0-.07,0-.11.01-.15.04-.29.15-.39.3Z"/>
        <path class="cls-1" d="M13.8,23.12c.11-.15.28-.3.44-.37h.01c.06-.03.11-.04.15-.04.03,0,.07,0,.1.04.02.03.02.09,0,.15h0s0,0,0,0c-.03-.05-.08-.07-.16-.07-.05,0-.12.01-.18.04-.12.05-.25.14-.35.24Z"/>
        <path class="cls-1" d="M13.06,24.01c.09-.16.22-.31.34-.37.04-.02.07-.03.1-.03s.05.01.07.03c.03.04.03.12.01.22-.03-.06-.07-.09-.14-.09-.04,0-.08.01-.13.03-.08.04-.17.11-.24.21Z"/>
        <g>
          <path class="cls-5" d="M13.79,29.08s-.06,0-.09-.01c-.19-.05-.38-.28-.46-.53.1.15.25.27.39.31.04,0,.07.01.1.01.13,0,.24-.07.3-.19.01.14-.01.26-.08.34-.04.05-.1.08-.17.08h0Z"/>
          <path class="cls-5" d="M13.51,29.69s-.06,0-.1-.03c-.12-.06-.25-.21-.35-.38.08.1.17.17.25.21.05.02.09.03.13.03.07,0,.12-.03.15-.09.02.1.02.18-.01.23-.02.02-.04.03-.07.03h0Z"/>
          <path class="cls-5" d="M16.51,30.39s-.04,0-.06,0c-.32-.02-.62-.25-.68-.51.14.17.39.29.65.31.02,0,.05,0,.07,0,.24,0,.46-.09.57-.24,0,.1-.04.2-.12.27-.1.11-.26.17-.44.17h0Z"/>
          <path class="cls-5" d="M14.79,30.12s-.08,0-.12-.02c-.23-.06-.47-.28-.57-.5.13.15.31.27.5.32.05.01.1.02.15.02.15,0,.27-.06.33-.16.01.1,0,.19-.06.25-.05.06-.13.1-.23.1h0Z"/>
          <path class="cls-5" d="M15.4,29.38s-.05,0-.07,0c-.31-.04-.59-.31-.66-.62.13.2.37.34.62.36.03,0,.06,0,.09,0,.23,0,.43-.1.53-.27,0,.15-.04.28-.13.37-.09.1-.23.15-.37.15h0Z"/>
          <path class="cls-5" d="M12.78,28.7s-.03,0-.05-.01c-.08-.04-.16-.18-.23-.34.05.07.1.12.15.15.02.01.05.02.07.02.06,0,.1-.04.12-.11.02.15,0,.24-.03.27-.01.01-.02.02-.04.02h0Z"/>
          <path class="cls-5" d="M17.42,29.49c-.37,0-.69-.27-.71-.61.14.21.41.34.71.34.3,0,.57-.13.71-.34-.03.34-.34.61-.71.61h0Z"/>
          <path class="cls-5" d="M17.41,31.86c-.2,0-.37-.04-.45-.09.11.05.27.07.45.07.17,0,.33-.03.44-.07-.08.05-.25.09-.43.09h0Z"/>
          <path class="cls-5" d="M16.2,31.74c-.06,0-.14,0-.21-.03-.1-.02-.21-.06-.29-.1.08.03.16.05.24.07.09.02.18.03.25.03.05,0,.12,0,.17-.03,0,0,0,.01,0,.02,0,0-.03.04-.14.04h0Z"/>
          <path class="cls-5" d="M20.48,30.55s-.07,0-.09-.04c-.02-.03-.02-.09,0-.15.03.04.08.07.15.07.05,0,.12-.01.19-.04.11-.05.22-.12.32-.22-.11.14-.27.28-.42.34-.05.02-.11.04-.15.04h0Z"/>
          <path class="cls-5" d="M21.33,29.67s-.05-.01-.07-.03c-.03-.04-.04-.12-.01-.22.03.06.08.09.14.09.04,0,.08-.01.13-.03.08-.04.17-.11.24-.21-.09.17-.22.32-.34.38-.04.02-.07.03-.09.03h0Z"/>
          <path class="cls-5" d="M15.87,31.83s.02,0,.04.01c0,0-.02,0-.03-.01,0,0,0,0,0,0Z"/>
          <path class="cls-5" d="M18.63,31.73c-.11,0-.13-.03-.14-.03,0,0,0,0,0-.02.04.02.11.03.16.03.07,0,.16-.01.25-.03.08-.02.16-.04.23-.07-.09.04-.19.07-.29.09-.08.02-.15.03-.22.03h0Z"/>
          <path class="cls-5" d="M19.03,31.8s0,0,0,0c0,0,0,0,0,0Z"/>
          <path class="cls-5" d="M18.4,30.38c-.17,0-.33-.06-.43-.16-.07-.08-.11-.17-.11-.27.11.15.32.24.56.24.03,0,.05,0,.08,0,.26-.02.5-.14.64-.31-.06.26-.35.48-.67.51-.02,0-.04,0-.06,0Z"/>
          <path class="cls-5" d="M21,29.08c-.07,0-.13-.03-.17-.08-.07-.08-.09-.2-.08-.34.06.12.17.19.3.19.03,0,.07,0,.1-.01.15-.04.29-.15.39-.31-.08.25-.27.48-.46.53-.03,0-.06.01-.09.01h0Z"/>
          <path class="cls-5" d="M19.44,29.37c-.15,0-.28-.05-.37-.15-.09-.1-.14-.23-.13-.37.1.17.3.27.53.27.03,0,.06,0,.09,0,.25-.03.48-.17.61-.36-.06.31-.34.58-.65.62-.03,0-.05,0-.08,0h0Z"/>
          <path class="cls-5" d="M20.06,30.11c-.1,0-.17-.03-.22-.09-.05-.06-.07-.15-.06-.25.06.1.18.16.33.16.05,0,.1,0,.15-.02.18-.04.37-.16.49-.32-.1.23-.33.44-.56.5-.04.01-.08.02-.12.02h0Z"/>
          <path class="cls-5" d="M22.01,28.7s-.03,0-.04-.02c-.03-.03-.05-.12-.03-.27.02.07.07.11.12.11.02,0,.05,0,.07-.02.05-.03.1-.08.15-.15-.06.16-.15.3-.23.34-.02,0-.03.01-.05.01h0Z"/>
          <path class="cls-5" d="M17.48,31.11c-.3,0-.56-.15-.6-.34.12.13.35.2.6.2.26,0,.49-.08.62-.21-.04.19-.31.34-.61.35h0Z"/>
          <path class="cls-5" d="M16.78,31.55s-.06,0-.09,0c-.24-.02-.47-.13-.56-.24.13.09.32.15.53.17.04,0,.07,0,.11,0,.18,0,.33-.04.42-.11,0,.03-.02.05-.04.07-.07.07-.21.11-.37.11h0Z"/>
          <path class="cls-5" d="M15.84,30.97s-.09,0-.13-.01c-.25-.05-.51-.22-.6-.4.14.13.34.23.55.26.05,0,.11.01.16.01.16,0,.3-.05.37-.13,0,.06-.01.11-.05.16-.06.07-.16.11-.29.11Z"/>
          <path class="cls-5" d="M15.38,31.29c-.05,0-.12-.01-.19-.03-.16-.05-.33-.15-.45-.25.11.07.24.14.37.18.08.03.16.04.23.04.08,0,.14-.02.17-.05.01.03,0,.06,0,.08-.02.03-.07.04-.13.04h0Z"/>
          <path class="cls-5" d="M19.11,30.95c-.12,0-.22-.04-.27-.1-.04-.04-.05-.1-.04-.16.07.08.19.13.34.13.05,0,.11,0,.17-.02.2-.04.4-.14.53-.27-.1.18-.35.35-.59.4-.05,0-.09.01-.14.01h0Z"/>
          <path class="cls-5" d="M18.21,31.53c-.15,0-.28-.04-.33-.1-.02-.02-.03-.04-.03-.07.08.06.21.1.38.1.04,0,.09,0,.14,0,.2-.02.39-.09.52-.18-.09.12-.32.23-.55.25-.04,0-.08,0-.11,0h0Z"/>
          <path class="cls-5" d="M19.56,31.25c-.06,0-.09-.01-.11-.04-.02-.02,0-.05,0-.08.03.03.08.05.15.05s.15-.01.23-.04c.11-.04.23-.1.34-.17-.11.1-.27.19-.42.24-.07.02-.14.04-.19.04h0Z"/>
          <path class="cls-5" d="M14.41,30.58s-.09-.01-.15-.04c-.15-.06-.32-.2-.43-.35.1.1.22.18.34.22.07.03.13.04.19.04.08,0,.13-.03.16-.07.02.07.02.12,0,.15-.02.03-.07.04-.1.04h0Z"/>
        </g>
      </g>
    </g>
  </g>
</svg>