<?xml version="1.0" encoding="UTF-8"?>
<svg id="Calque_2" data-name="Calque 2" xmlns="http://www.w3.org/2000/svg" viewBox="0 0 721.56 825.25">
  <defs>
    <style>
      .cls-1 {
        fill: #0e587d;
      }

      .cls-2 {
        fill: #fff;
      }
    </style>
  </defs>
  <g id="map">
    <g>
      <path class="cls-1" d="M235.18,275.46v438.04l-219.18,91.73v-455.16l209.04-87.49c3.17,4.46,6.56,8.76,10.14,12.88Z"/>
      <path class="cls-1" d="M373.65,332.33v190.32c0,7.1-5.78,12.87-12.87,12.87s-12.87-5.77-12.87-12.87v-190.32c4.25.32,8.54.49,12.87.49s8.62-.17,12.87-.49Z"/>
      <path class="cls-1" d="M360.78,16c-82.94,0-150.41,67.47-150.41,150.41s67.47,150.41,150.41,150.41,150.41-67.47,150.41-150.41S443.72,16,360.78,16ZM360.78,59.26c-25.99,0-51.06,9.42-70.58,26.53-19.34,16.95-31.96,40.23-35.52,65.56-.56,3.99-3.99,6.88-7.91,6.88-.37,0-.75-.02-1.13-.08-4.37-.61-7.42-4.66-6.8-9.03,4.09-29.12,18.59-55.89,40.82-75.37,22.44-19.66,51.25-30.49,81.12-30.49,4.42,0,8,3.58,8,8s-3.58,8-8,8Z"/>
      <path class="cls-2" d="M470.37,350.07v455.16l-219.19-91.73v-421.98c22.42,19.66,50.15,33.42,80.73,38.79v192.34c0,15.92,12.95,28.87,28.87,28.87s28.87-12.95,28.87-28.87v-192.34c7.22-1.27,14.27-3,21.14-5.17l59.58,24.93Z"/>
      <polygon class="cls-1" points="705.56 258.33 705.56 713.5 486.37 805.23 486.37 350.07 705.56 258.33"/>
      <g>
        <path class="cls-1" d="M717.99,239.65c-2.23-1.48-5.05-1.75-7.52-.72l-232.1,97.15-46.24-19.36c56.16-26.76,95.06-84.07,95.06-150.31C527.19,74.65,452.54,0,360.78,0s-166.41,74.65-166.41,166.41c0,29.99,7.98,58.16,21.92,82.48L4.91,337.37c-2.97,1.25-4.91,4.16-4.91,7.38v472.5c0,2.68,1.34,5.18,3.57,6.66,1.33.89,2.87,1.34,4.43,1.34,1.05,0,2.1-.2,3.09-.62l232.09-97.14,232.1,97.14c1.98.83,4.2.83,6.18,0l235.19-98.43c2.97-1.25,4.91-4.16,4.91-7.38V246.31c0-2.68-1.34-5.18-3.57-6.66ZM235.18,713.5l-219.18,91.73v-455.16l209.04-87.49c3.17,4.46,6.56,8.76,10.14,12.88v438.04ZM210.37,166.41c0-82.94,67.47-150.41,150.41-150.41s150.41,67.47,150.41,150.41-67.47,150.41-150.41,150.41-150.41-67.47-150.41-150.41ZM373.65,332.33v190.32c0,7.1-5.78,12.87-12.87,12.87s-12.87-5.77-12.87-12.87v-190.32c4.25.32,8.54.49,12.87.49s8.62-.17,12.87-.49ZM470.37,805.23l-219.19-91.73v-421.98c22.42,19.66,50.15,33.42,80.73,38.79v192.34c0,15.92,12.95,28.87,28.87,28.87s28.87-12.95,28.87-28.87v-192.34c7.22-1.27,14.27-3,21.14-5.17l59.58,24.93v455.16ZM705.56,713.5l-219.19,91.73v-455.16l219.19-91.74v455.17Z"/>
        <path class="cls-2" d="M373.65,332.33v190.32c0,7.1-5.78,12.87-12.87,12.87s-12.87-5.77-12.87-12.87v-190.32c4.25.32,8.54.49,12.87.49s8.62-.17,12.87-.49Z"/>
        <path class="cls-2" d="M368.78,51.26c0,4.42-3.58,8-8,8-25.99,0-51.06,9.42-70.58,26.53-19.34,16.95-31.96,40.23-35.52,65.56-.56,3.99-3.99,6.88-7.91,6.88-.37,0-.75-.02-1.13-.08-4.37-.61-7.42-4.66-6.8-9.03,4.09-29.12,18.59-55.89,40.82-75.37,22.44-19.66,51.25-30.49,81.12-30.49,4.42,0,8,3.58,8,8Z"/>
      </g>
    </g>
  </g>
</svg>