<svg width="79" height="66" viewBox="0 0 79 66" fill="none" xmlns="http://www.w3.org/2000/svg">
<path d="M58.7665 46.6544C69.4395 35.9813 69.4395 18.6769 58.7665 8.0039C48.0934 -2.66913 30.789 -2.66912 20.116 8.0039C9.44297 18.6769 9.44297 35.9813 20.116 46.6544C30.789 57.3274 48.0934 57.3274 58.7665 46.6544Z" fill="#0E587D"/>
<path d="M58.4977 46.3857C69.0223 35.861 69.0223 18.7972 58.4977 8.2726C47.9731 -2.25203 30.9093 -2.25203 20.3847 8.2726C9.86003 18.7972 9.86002 35.861 20.3847 46.3857C30.9093 56.9103 47.9731 56.9103 58.4977 46.3857Z" fill="white"/>
<path d="M39.4399 39.3C31.0299 39.3 20.6099 37.14 12.6199 29.9C13.9099 43.58 25.4299 54.28 39.4399 54.28C53.4499 54.28 64.9699 43.58 66.2599 29.9C58.2699 37.14 47.8499 39.3 39.4399 39.3Z" fill="#0E587D"/>
<path d="M13.68 31.41C13.51 31.07 13.32 30.8 13.13 30.72C13.09 30.7 13.05 30.69 13.01 30.69C12.94 30.69 12.88 30.72 12.82 30.78C12.8 30.8 12.79 30.82 12.78 30.84C12.76 30.26 12.82 29.86 12.91 29.75C13.14 29.8 13.45 30.45 13.67 31.41H13.68Z" fill="#0E587D"/>
<path d="M20.81 27.99C20.31 27.02 19.47 26.42 18.57 26.42C17.77 26.43 17.08 26.94 16.7 27.74C16.79 26.26 17.59 25.07 18.58 25.02H18.65C19.76 25.02 20.69 26.33 20.8 27.99H20.81Z" fill="#0E587D"/>
<path d="M20.2 22.16C20.44 20.54 21.62 19.15 22.95 18.98C23.04 18.97 23.14 18.96 23.23 18.96C23.81 18.96 24.34 19.19 24.76 19.63C25.28 20.18 25.57 21 25.55 21.91C25.06 20.98 24.12 20.4 23.07 20.4C22.97 20.4 22.87 20.4 22.77 20.41C21.71 20.52 20.75 21.18 20.2 22.16Z" fill="#0E587D"/>
<path d="M13.7799 22.8C13.6699 22.51 13.5299 22.35 13.3399 22.35C13.2899 22.35 13.2399 22.36 13.1799 22.39C13.0799 22.44 12.9999 22.54 12.9199 22.66C13.0799 21.99 13.2999 21.51 13.4599 21.41C13.4799 21.4 13.4999 21.39 13.5099 21.39C13.5099 21.39 13.5299 21.39 13.5599 21.42C13.6799 21.56 13.7899 22.03 13.7699 22.8H13.7799Z" fill="#0E587D"/>
<path d="M14.77 27.5C14.5 26.87 14.12 26.5 13.72 26.5C13.41 26.5 13.15 26.75 12.97 27.15C13.07 26.11 13.42 25.41 13.75 25.37C14.19 25.37 14.64 26.17 14.77 27.5Z" fill="#0E587D"/>
<path d="M57.4399 22.12C56.8699 21.12 55.8699 20.44 54.7599 20.34C54.6599 20.34 54.5599 20.33 54.4699 20.33C53.3699 20.33 52.3899 20.92 51.8799 21.87C51.8699 20.96 52.1599 20.13 52.6899 19.58C53.1299 19.12 53.6899 18.88 54.3099 18.88C54.3999 18.88 54.4899 18.88 54.5799 18.9C55.9699 19.06 57.1999 20.48 57.4299 22.13L57.4399 22.12Z" fill="#0E587D"/>
<path d="M60.1698 17.21C59.6498 16.42 58.8998 15.83 58.1298 15.64C57.9398 15.59 57.7598 15.57 57.5798 15.57C56.8898 15.57 56.3198 15.94 56.0298 16.55C55.9598 15.83 56.0998 15.21 56.4298 14.83C56.6598 14.56 56.9698 14.42 57.3398 14.42C57.4798 14.42 57.6298 14.44 57.7798 14.48C58.7598 14.76 59.7598 15.92 60.1698 17.21Z" fill="#0E587D"/>
<path d="M52.7999 16.04C52.1099 15.04 50.9099 14.33 49.6399 14.19C49.4899 14.17 49.3399 14.17 49.1999 14.17C47.9999 14.17 46.9799 14.69 46.4599 15.56C46.4399 14.83 46.6699 14.16 47.1299 13.67C47.6099 13.16 48.2899 12.88 49.0499 12.88C49.1699 12.88 49.2999 12.88 49.4299 12.9C51.0199 13.09 52.4899 14.48 52.7999 16.04Z" fill="#0E587D"/>
<path d="M61.2599 13.49C60.8699 13.01 60.4299 12.63 60.0099 12.43C59.7699 12.31 59.5499 12.25 59.3499 12.25C59.0099 12.25 58.7499 12.42 58.6199 12.72C58.4999 12.21 58.5199 11.8 58.6799 11.59C58.7599 11.48 58.8799 11.43 59.0199 11.43C59.1599 11.43 59.3299 11.48 59.5099 11.57C60.0999 11.88 60.7799 12.65 61.2599 13.49Z" fill="#0E587D"/>
<path d="M35.3899 15.39C35.5199 13.69 37.1199 12.31 39.0199 12.31C40.9199 12.31 42.5199 13.68 42.6399 15.38C41.9199 14.32 40.5399 13.65 39.0199 13.65C37.4899 13.65 36.1099 14.32 35.3899 15.38V15.39Z" fill="#0E587D"/>
<path d="M48.28 21.73C47.57 20.56 46.2 19.81 44.67 19.76H44.54C43.02 19.76 41.66 20.48 40.97 21.62C40.99 20.7 41.35 19.84 41.99 19.2C42.65 18.54 43.53 18.17 44.48 18.17H44.6C46.52 18.24 48.13 19.82 48.27 21.73H48.28Z" fill="#0E587D"/>
<path d="M29.3499 21.75C29.4999 19.85 31.0999 18.27 32.9899 18.2H33.1299C34.0599 18.2 34.9398 18.56 35.5898 19.21C36.2198 19.85 36.5798 20.71 36.5898 21.63C35.9098 20.5 34.5699 19.78 33.0699 19.78H32.9198C31.4098 19.83 30.0499 20.59 29.3499 21.75Z" fill="#0E587D"/>
<path d="M25.04 16.09C25.36 14.53 26.8 13.15 28.37 12.95C28.5 12.93 28.63 12.93 28.76 12.93C29.5 12.93 30.17 13.21 30.63 13.7C31.08 14.19 31.32 14.85 31.29 15.58C30.78 14.73 29.79 14.21 28.61 14.21C28.46 14.21 28.31 14.21 28.15 14.24C26.89 14.38 25.72 15.09 25.03 16.09H25.04Z" fill="#0E587D"/>
<path d="M17.53 33.04C17.08 32.23 16.45 31.67 15.84 31.56C15.77 31.55 15.71 31.54 15.64 31.54C15.21 31.54 14.87 31.82 14.68 32.29C14.65 31.55 14.8 30.91 15.1 30.57C15.24 30.4 15.41 30.32 15.6 30.32C15.63 30.32 15.65 30.32 15.68 30.32C16.44 30.42 17.24 31.62 17.52 33.04H17.53Z" fill="#0E587D"/>
<path d="M14.74 22.56C15 21.36 15.63 20.34 16.3 20.17C16.37 20.15 16.44 20.14 16.51 20.14C16.73 20.14 16.92 20.23 17.1 20.42C17.46 20.81 17.65 21.53 17.63 22.39C17.36 21.73 16.88 21.35 16.32 21.35C16.24 21.35 16.15 21.35 16.07 21.38C15.56 21.49 15.08 21.93 14.75 22.57L14.74 22.56Z" fill="#0E587D"/>
<path d="M14.1599 18.27C14.4799 17.46 14.9199 16.78 15.2899 16.56C15.3799 16.51 15.4599 16.48 15.5199 16.48C15.5899 16.48 15.6599 16.51 15.7099 16.58C15.8499 16.75 15.9499 17.2 15.8399 17.96C15.7199 17.62 15.5099 17.44 15.2299 17.44C15.1099 17.44 14.9899 17.47 14.8599 17.54C14.6199 17.67 14.3699 17.93 14.1399 18.28L14.1599 18.27Z" fill="#0E587D"/>
<path d="M42.37 28.33C41.65 27.1 40.2 26.33 38.55 26.33C36.91 26.33 35.47 27.1 34.75 28.32C34.77 27.34 35.16 26.42 35.86 25.72C36.58 25 37.54 24.6 38.55 24.6C39.57 24.6 40.53 25 41.25 25.72C41.95 26.42 42.34 27.34 42.36 28.33H42.37Z" fill="#0E587D"/>
<path d="M51.3899 34.42C51.5999 32.58 52.9999 31.05 54.5899 30.97C54.6299 30.97 54.6699 30.97 54.7099 30.97C55.3299 30.97 55.8899 31.22 56.3099 31.68C56.7899 32.21 57.0399 32.99 56.9999 33.82C56.6099 32.99 55.7599 32.48 54.7299 32.48C54.6499 32.48 54.5699 32.48 54.4799 32.48C53.2599 32.57 52.0599 33.33 51.3799 34.41L51.3899 34.42Z" fill="#0E587D"/>
<path d="M36.18 34.89C35.45 33.74 34.01 32.97 32.47 32.92H32.33C30.88 32.92 29.64 33.57 29.05 34.61C29.03 33.73 29.34 32.91 29.92 32.28C30.54 31.62 31.4 31.26 32.34 31.26H32.41C34.41 31.3 36.08 32.92 36.17 34.89H36.18Z" fill="#0E587D"/>
<path d="M30.51 28.27C29.83 27.11 28.52 26.35 27.12 26.35C25.77 26.35 24.61 27.04 24.03 28.12C24.09 26.26 25.45 24.75 27.13 24.71H27.19C28.97 24.71 30.44 26.29 30.51 28.26V28.27Z" fill="#0E587D"/>
<path d="M46.3699 28.29C46.4399 26.3 47.9599 24.69 49.7999 24.69H49.8599C51.6099 24.73 53.0299 26.27 53.0899 28.16C52.4899 27.05 51.2799 26.35 49.8899 26.35C48.4299 26.35 47.0699 27.12 46.3799 28.29H46.3699Z" fill="#0E587D"/>
<path d="M40.52 34.92C40.59 32.95 42.27 31.33 44.3 31.3C45.33 31.3 46.22 31.67 46.87 32.35C47.47 32.98 47.79 33.81 47.77 34.7C47.16 33.63 45.87 32.96 44.36 32.96H44.25C42.68 33 41.23 33.77 40.5 34.91L40.52 34.92Z" fill="#0E587D"/>
<path d="M25.3199 34.27C24.6599 33.22 23.5399 32.47 22.3999 32.37C22.3099 32.37 22.2299 32.36 22.1499 32.36C21.2099 32.36 20.4399 32.84 20.0799 33.62C20.0399 32.79 20.2699 32.03 20.7299 31.52C21.1099 31.1 21.5999 30.88 22.1599 30.88C22.1999 30.88 22.2399 30.88 22.2799 30.88C23.7599 30.97 25.0899 32.47 25.3199 34.27Z" fill="#0E587D"/>
<path d="M32.6399 3.17C33.0899 2.58 34.2399 2.07 35.4299 1.96C35.5899 1.95 35.7499 1.94 35.8999 1.94C36.7299 1.94 37.4499 2.15 37.7799 2.5C37.8799 2.6 37.9399 2.71 37.9599 2.83C37.5299 2.5 36.7499 2.3 35.8599 2.3C35.6799 2.3 35.4899 2.3 35.2899 2.33C34.2699 2.42 33.2799 2.74 32.6399 3.18V3.17Z" fill="#0E587D"/>
<path d="M56.47 28.04C56.58 26.33 57.58 24.98 58.78 24.98H58.85C59.93 25.03 60.8 26.27 60.89 27.8C60.49 26.96 59.74 26.42 58.89 26.41C57.9 26.41 56.99 27.03 56.47 28.03V28.04Z" fill="#0E587D"/>
<path d="M64.0099 18.23C63.7699 17.86 63.4999 17.58 63.2399 17.44C63.1099 17.37 62.9799 17.34 62.8599 17.34C62.5699 17.34 62.3499 17.54 62.2199 17.89C62.1199 17.13 62.2199 16.67 62.3699 16.49C62.4299 16.42 62.4999 16.38 62.5799 16.38C62.6499 16.38 62.7299 16.41 62.8299 16.46C63.2299 16.69 63.6899 17.4 64.0199 18.23H64.0099Z" fill="#0E587D"/>
<path d="M62.96 27.58C63.08 26.3 63.54 25.33 64.07 25.33C64.49 25.37 64.8999 26.13 65.0099 27.23C64.8099 26.77 64.51 26.5 64.16 26.49C63.69 26.49 63.26 26.9 62.96 27.57V27.58Z" fill="#0E587D"/>
<path d="M64.5698 31.7C64.8198 30.63 65.1998 29.89 65.4598 29.82C65.4598 29.82 65.4698 29.82 65.4798 29.82C65.4998 29.82 65.5198 29.82 65.5498 29.86C65.6698 30 65.7598 30.43 65.7298 31.06C65.7098 31.01 65.6798 30.97 65.6398 30.93C65.5798 30.86 65.4898 30.82 65.4098 30.82C65.3698 30.82 65.3298 30.82 65.2798 30.84C65.0198 30.94 64.7698 31.28 64.5598 31.69L64.5698 31.7Z" fill="#0E587D"/>
<path d="M63.21 22.53C62.85 21.86 62.34 21.39 61.78 21.28C61.69 21.26 61.6 21.25 61.52 21.25C60.92 21.25 60.42 21.66 60.12 22.34C60.1 21.47 60.3 20.74 60.68 20.33C60.87 20.13 61.09 20.02 61.33 20.02C61.4 20.02 61.48 20.02 61.55 20.05C62.27 20.23 62.95 21.28 63.21 22.52V22.53Z" fill="#0E587D"/>
<path d="M64.6999 22.77C64.6799 21.98 64.7999 21.48 64.9399 21.33C64.9799 21.28 65.0099 21.28 65.0199 21.28C65.0399 21.28 65.0599 21.28 65.0899 21.3C65.2799 21.41 65.5199 21.93 65.6999 22.65C65.5999 22.48 65.4899 22.35 65.3599 22.3C65.3099 22.28 65.2499 22.26 65.1999 22.26C64.9899 22.26 64.8199 22.44 64.6999 22.77Z" fill="#0E587D"/>
<path d="M46.5698 3.31999C45.9198 2.86999 44.9398 2.52999 43.9298 2.41999C43.6998 2.38999 43.4598 2.37999 43.2398 2.37999C42.4098 2.37999 41.7098 2.55999 41.3098 2.85999C41.3198 2.72999 41.3698 2.62999 41.4598 2.52999C41.7498 2.20999 42.3898 2.01999 43.1698 2.01999C43.3498 2.01999 43.5498 2.02999 43.7498 2.04999C44.9598 2.18999 46.1098 2.71999 46.5598 3.30999L46.5698 3.31999Z" fill="#0E587D"/>
<path d="M53.17 4.86C52.65 4.51 52.05 4.21 51.47 4.02C51.03 3.88 50.62 3.8 50.27 3.8C49.92 3.8 49.65 3.88 49.49 4.03C49.45 3.91 49.42 3.76 49.49 3.64C49.57 3.51 49.77 3.44 50.05 3.44C50.33 3.44 50.66 3.51 51.03 3.63C51.78 3.88 52.58 4.35 53.16 4.85L53.17 4.86Z" fill="#0E587D"/>
<path d="M42.54 5.93998C41.91 5.26998 40.73 4.83998 39.44 4.81998C38.16 4.81998 37 5.22998 36.37 5.87998V5.79998L36.29 5.86998C36.47 4.90998 37.81 4.13998 39.36 4.13998H39.43C41.02 4.14998 42.36 4.90998 42.59 5.86998L42.56 5.83998L42.54 5.92998V5.93998Z" fill="#0E587D"/>
<path d="M51.3099 7.08998C50.6399 6.40998 49.5799 5.85998 48.5099 5.64998C48.2299 5.59998 47.9599 5.57998 47.6999 5.57998C46.8999 5.57998 46.2499 5.81998 45.9099 6.22998L45.8799 6.14998L45.8199 6.22998C45.7799 5.92998 45.8599 5.65998 46.0399 5.43998C46.3199 5.10998 46.8399 4.91998 47.4699 4.91998C47.6899 4.91998 47.9299 4.93998 48.1699 4.98998L48.2499 5.00998C49.5399 5.25998 50.8199 6.12998 51.3099 7.03998V7.10998V7.08998Z" fill="#0E587D"/>
<path d="M47.75 10.42C47.03 9.55 45.79 8.95 44.46 8.85C44.33 8.85 44.2 8.84 44.08 8.84C42.86 8.84 41.77 9.3 41.22 10.04C41.22 9.53 41.43 9.06 41.8 8.68C42.32 8.15 43.12 7.84 44.01 7.84C44.11 7.84 44.22 7.84 44.33 7.85C45.97 7.98 47.46 9.12 47.77 10.43L47.75 10.42Z" fill="#0E587D"/>
<path d="M56.0199 11.8C55.3799 11.03 54.4399 10.42 53.4999 10.2C53.2299 10.14 52.9699 10.1 52.7199 10.1C51.9599 10.1 51.3599 10.4 51.0499 10.91C50.9799 10.39 51.0699 9.95997 51.3399 9.63997C51.5999 9.32997 52.0099 9.15997 52.4999 9.15997C52.6999 9.15997 52.9099 9.18997 53.1399 9.23997C54.3299 9.53997 55.5399 10.64 56.0299 11.79L56.0199 11.8Z" fill="#0E587D"/>
<path d="M25.6099 4.67999C26.1999 4.16999 27.0299 3.69999 27.7999 3.44999C28.1699 3.33999 28.5099 3.26999 28.7799 3.26999C29.0999 3.26999 29.3199 3.34999 29.4199 3.48999C29.4799 3.58999 29.4899 3.70999 29.4399 3.86999C29.2699 3.70999 28.9699 3.61999 28.5799 3.61999C28.2299 3.61999 27.8199 3.68999 27.3899 3.81999C26.7799 4.00999 26.1499 4.30999 25.6099 4.66999V4.67999Z" fill="#0E587D"/>
<path d="M57.6899 9.01998C57.1699 8.49998 56.5399 8.05998 55.9499 7.79998C55.6099 7.65998 55.2999 7.58998 55.0199 7.58998C54.6599 7.58998 54.3899 7.71998 54.2499 7.94998L54.2099 7.85998L54.1799 7.91998C54.0699 7.58998 54.0699 7.30998 54.1799 7.14998C54.2899 6.98998 54.4999 6.94998 54.6499 6.94998C54.8599 6.94998 55.1199 7.00998 55.4099 7.13998L55.4699 7.16998C56.2599 7.50998 57.1199 8.24998 57.6899 9.01998Z" fill="#0E587D"/>
<path d="M30.6799 10.4C30.9799 9.08998 32.4699 7.95998 34.1199 7.82998C34.2199 7.82998 34.3299 7.81998 34.4299 7.81998C35.3199 7.81998 36.1299 8.12998 36.6499 8.65998C37.0199 9.03998 37.2199 9.50998 37.2299 10.02C36.6699 9.27998 35.5799 8.80998 34.3499 8.80998C34.2299 8.80998 34.0999 8.80998 33.9799 8.81998C32.6499 8.91998 31.3999 9.51998 30.6799 10.39V10.4Z" fill="#0E587D"/>
<path d="M27.28 6.95999C27.77 6.04999 29.05 5.17999 30.34 4.93999H30.42C30.67 4.87999 30.9 4.85999 31.12 4.85999C31.77 4.85999 32.3 5.04999 32.59 5.38999C32.77 5.60999 32.85 5.87999 32.82 6.17999L32.78 6.12999L32.74 6.19999C32.39 5.76999 31.72 5.51999 30.89 5.51999C30.64 5.51999 30.37 5.53999 30.1 5.58999C29.02 5.78999 27.95 6.33999 27.27 7.01999V6.94999L27.28 6.95999Z" fill="#0E587D"/>
<path d="M59.75 33.27C60.03 31.76 60.9 30.52 61.79 30.42C61.82 30.42 61.85 30.42 61.88 30.42C62.12 30.42 62.33 30.52 62.5 30.73C62.83 31.1 62.99 31.77 62.96 32.53C62.75 32.01 62.35 31.7 61.85 31.7C61.78 31.7 61.71 31.7 61.64 31.72C60.94 31.83 60.24 32.43 59.75 33.29V33.27Z" fill="#0E587D"/>
<path d="M22.1799 11.82C22.6699 10.66 23.8799 9.56999 25.0599 9.26999C25.2799 9.20999 25.4899 9.17999 25.6999 9.17999C26.1899 9.17999 26.5899 9.33999 26.8499 9.65999C27.1099 9.97999 27.2099 10.41 27.1399 10.93C26.8299 10.42 26.2399 10.12 25.4799 10.12C25.2299 10.12 24.9699 10.15 24.6999 10.22C23.7599 10.45 22.8299 11.05 22.1899 11.82H22.1799Z" fill="#0E587D"/>
<path d="M17.8499 17.26C18.2599 15.99 19.2299 14.84 20.1799 14.57C20.3299 14.53 20.4799 14.5 20.6199 14.5C20.9599 14.5 21.2599 14.64 21.4799 14.89C21.7999 15.27 21.9399 15.88 21.8699 16.6C21.5899 16 21.0399 15.64 20.3699 15.64C20.1999 15.64 20.0099 15.66 19.8299 15.71C19.0899 15.9 18.3599 16.48 17.8499 17.26Z" fill="#0E587D"/>
<path d="M20.76 8.95C21.33 8.17 22.21 7.42 23.02 7.08L23.07 7.06C23.37 6.93 23.63 6.87 23.85 6.87C24.01 6.87 24.22 6.91 24.34 7.08C24.46 7.25 24.46 7.52 24.36 7.84V7.81L24.3 7.89C24.16 7.65 23.87 7.51 23.49 7.51C23.21 7.51 22.9 7.58 22.56 7.72C21.94 7.98 21.3 8.43 20.76 8.96V8.95Z" fill="#0E587D"/>
<path d="M16.98 13.51C17.45 12.67 18.13 11.91 18.72 11.6C18.9 11.5 19.07 11.46 19.21 11.46C19.35 11.46 19.47 11.51 19.55 11.62C19.71 11.83 19.73 12.24 19.6 12.75C19.47 12.45 19.22 12.28 18.88 12.28C18.68 12.28 18.46 12.34 18.22 12.46C17.81 12.66 17.37 13.04 16.98 13.51Z" fill="#0E587D"/>
<path d="M20.7099 39.38C20.5699 39.38 20.4199 39.36 20.2699 39.32C19.2999 39.05 18.3199 37.88 17.9199 36.6C18.4299 37.38 19.1699 37.97 19.9299 38.16C20.1099 38.21 20.2899 38.23 20.4599 38.23C21.1399 38.23 21.7099 37.86 21.9999 37.25C22.0699 37.97 21.9299 38.6 21.5999 38.98C21.3699 39.24 21.0599 39.38 20.7099 39.38Z" fill="white"/>
<path d="M19.25 42.49C19.11 42.49 18.94 42.44 18.76 42.35C18.16 42.04 17.46 41.26 16.99 40.4C17.39 40.89 17.84 41.28 18.27 41.49C18.51 41.6 18.73 41.66 18.93 41.66C19.28 41.66 19.54 41.48 19.68 41.17C19.8 41.69 19.78 42.11 19.61 42.33C19.53 42.44 19.41 42.5 19.25 42.5V42.49Z" fill="white"/>
<path d="M34.6099 46.07C34.5099 46.07 34.4199 46.07 34.3199 46.06C32.6599 45.94 31.1599 44.79 30.8699 43.46C31.5899 44.34 32.8499 44.94 34.1899 45.04C34.3099 45.04 34.4299 45.05 34.5399 45.05C35.7899 45.05 36.8899 44.58 37.4599 43.82C37.4499 44.34 37.2399 44.82 36.8599 45.21C36.3299 45.75 35.5099 46.07 34.6099 46.07Z" fill="white"/>
<path d="M25.81 44.73C25.61 44.73 25.4 44.7 25.18 44.65C23.98 44.35 22.76 43.24 22.27 42.07C22.92 42.85 23.86 43.46 24.81 43.69C25.07 43.75 25.33 43.78 25.58 43.78C26.35 43.78 26.97 43.47 27.28 42.95C27.35 43.47 27.25 43.92 26.98 44.24C26.72 44.56 26.3 44.73 25.8 44.73H25.81Z" fill="white"/>
<path d="M28.94 40.92C28.82 40.92 28.69 40.92 28.56 40.9C26.97 40.71 25.52 39.32 25.21 37.74C25.9 38.75 27.09 39.46 28.36 39.59C28.51 39.61 28.66 39.61 28.8 39.61C30 39.61 31.01 39.08 31.52 38.22C31.54 38.96 31.31 39.64 30.84 40.13C30.36 40.64 29.69 40.92 28.93 40.92H28.94Z" fill="white"/>
<path d="M15.5499 37.43C15.4799 37.43 15.3999 37.4 15.3099 37.35C14.9199 37.12 14.4699 36.43 14.1499 35.6C14.3899 35.96 14.6499 36.23 14.8999 36.37C15.0299 36.44 15.1499 36.47 15.2699 36.47C15.5599 36.47 15.7799 36.27 15.8999 35.93C15.9999 36.7 15.8999 37.15 15.7499 37.33C15.6899 37.4 15.6299 37.43 15.5499 37.43Z" fill="white"/>
<path d="M39.2599 41.5C37.3599 41.5 35.7499 40.12 35.6299 38.4C36.3499 39.47 37.7299 40.14 39.2599 40.14C40.7899 40.14 42.1799 39.46 42.8999 38.4C42.7699 40.12 41.1699 41.5 39.2599 41.5Z" fill="white"/>
<path d="M39.2099 53.61C38.1799 53.61 37.3099 53.39 36.9299 53.13C37.4799 53.36 38.3199 53.5 39.2099 53.5C40.0799 53.5 40.8899 53.37 41.4399 53.15C41.0199 53.41 40.1899 53.61 39.2199 53.61H39.2099Z" fill="white"/>
<path d="M33.0199 52.99C32.7099 52.99 32.3299 52.94 31.9299 52.86C31.4099 52.75 30.8799 52.57 30.4199 52.37C30.8099 52.51 31.2199 52.64 31.6399 52.73C32.0999 52.83 32.5399 52.88 32.9199 52.88C33.1999 52.88 33.5499 52.85 33.7799 52.73C33.7799 52.77 33.7799 52.8 33.7599 52.81C33.7299 52.85 33.5899 53 33.0199 53V52.99Z" fill="white"/>
<path d="M54.8599 46.91C54.7099 46.91 54.5099 46.88 54.3999 46.72C54.2799 46.55 54.2799 46.28 54.3899 45.94C54.5299 46.17 54.7999 46.3 55.1599 46.3C55.4399 46.3 55.7599 46.23 56.1099 46.08C56.6599 45.85 57.2399 45.45 57.7399 44.97C57.1799 45.71 56.3599 46.4 55.6099 46.73C55.3299 46.85 55.0699 46.92 54.8599 46.92V46.91Z" fill="white"/>
<path d="M59.1898 42.41C59.0398 42.41 58.9298 42.36 58.8498 42.25C58.6898 42.03 58.6698 41.62 58.7898 41.1C58.9198 41.4 59.1798 41.57 59.5098 41.57C59.7098 41.57 59.9298 41.51 60.1598 41.4C60.5698 41.2 61.0098 40.82 61.3898 40.34C60.9198 41.19 60.2498 41.95 59.6598 42.26C59.4798 42.35 59.3198 42.4 59.1798 42.4L59.1898 42.41Z" fill="white"/>
<path d="M31.3398 53.42C31.3998 53.44 31.4598 53.47 31.5198 53.5C31.4698 53.47 31.4198 53.45 31.3598 53.43C31.3498 53.43 31.3398 53.43 31.3298 53.43L31.3398 53.42Z" fill="white"/>
<path d="M45.3899 52.96C44.8399 52.96 44.6999 52.82 44.6799 52.78C44.6699 52.76 44.6599 52.74 44.6599 52.69C44.8799 52.81 45.2299 52.84 45.4999 52.84C45.8799 52.84 46.3199 52.79 46.7899 52.68C47.1799 52.59 47.5799 52.47 47.9599 52.34C47.5099 52.53 46.9999 52.7 46.4999 52.82C46.0899 52.91 45.7099 52.96 45.3999 52.96H45.3899Z" fill="white"/>
<path d="M47.45 53.27C47.45 53.27 47.47 53.27 47.47 53.26C47.47 53.26 47.45 53.26 47.45 53.27Z" fill="white"/>
<path d="M44.2299 46.02C43.3499 46.02 42.5499 45.71 42.0399 45.18C41.6699 44.79 41.47 44.32 41.46 43.8C42.02 44.55 43.08 45.01 44.32 45.01C44.45 45.01 44.58 45.01 44.71 44.99C46.04 44.89 47.28 44.28 48 43.4C47.69 44.72 46.2 45.87 44.56 46.01C44.45 46.01 44.34 46.02 44.24 46.02H44.2299Z" fill="white"/>
<path d="M57.5299 39.39C57.1699 39.39 56.8599 39.25 56.6399 38.99C56.3099 38.61 56.1599 37.98 56.2399 37.25C56.5299 37.87 57.0899 38.24 57.7799 38.24C57.9499 38.24 58.1299 38.22 58.3099 38.17C59.0699 37.98 59.8099 37.39 60.3199 36.61C59.9199 37.89 58.9399 39.06 57.9599 39.33C57.8099 39.37 57.6599 39.39 57.5299 39.39Z" fill="white"/>
<path d="M49.5398 40.89C48.7998 40.89 48.1298 40.61 47.6598 40.11C47.1998 39.62 46.9598 38.94 46.9898 38.2C47.4998 39.06 48.4998 39.58 49.6898 39.58C49.8398 39.58 49.9898 39.58 50.1398 39.56C51.3998 39.42 52.5798 38.71 53.2598 37.71C52.9498 39.28 51.4998 40.67 49.9198 40.86C49.7898 40.88 49.6598 40.88 49.5398 40.88V40.89Z" fill="white"/>
<path d="M52.72 44.67C52.23 44.67 51.84 44.5 51.58 44.19C51.31 43.87 51.21 43.43 51.29 42.9C51.6 43.42 52.2 43.72 52.96 43.72C53.21 43.72 53.46 43.69 53.73 43.62C54.67 43.39 55.6 42.79 56.24 42.01C55.75 43.18 54.54 44.28 53.36 44.58C53.14 44.64 52.93 44.66 52.73 44.66L52.72 44.67Z" fill="white"/>
<path d="M62.7098 37.44C62.6298 37.44 62.5598 37.41 62.5098 37.34C62.3598 37.16 62.2598 36.7 62.3598 35.94C62.4798 36.29 62.7098 36.49 62.9898 36.49C63.1098 36.49 63.2298 36.46 63.3598 36.39C63.6098 36.26 63.8798 35.98 64.1098 35.62C63.7898 36.45 63.3398 37.15 62.9498 37.38C62.8598 37.43 62.7798 37.46 62.7098 37.46V37.44Z" fill="white"/>
<path d="M39.55 49.76C38.01 49.76 36.69 49 36.5 48.04C37.14 48.68 38.29 49.08 39.55 49.08C40.87 49.07 42.05 48.65 42.71 47.99C42.49 48.96 41.14 49.74 39.59 49.76H39.55Z" fill="white"/>
<path d="M35.9599 52.02C35.8099 52.02 35.6599 52.02 35.4999 52C34.2699 51.89 33.0799 51.35 32.6599 50.75C33.3099 51.21 34.3099 51.54 35.3599 51.63C35.5499 51.65 35.7299 51.65 35.9099 51.65C36.8099 51.65 37.5999 51.45 38.0399 51.11C38.0199 51.24 37.9599 51.35 37.8599 51.45C37.5199 51.8 36.7899 52.02 35.9599 52.02Z" fill="white"/>
<path d="M31.1499 49.07C30.9399 49.07 30.7099 49.05 30.4799 49.01C29.1799 48.78 27.8899 47.91 27.4099 46.98C28.0999 47.64 29.1399 48.15 30.1999 48.33C30.4799 48.38 30.7499 48.4 31.0099 48.4C31.8499 48.4 32.5299 48.15 32.8899 47.73C32.9199 48.03 32.8399 48.3 32.6499 48.52C32.3499 48.87 31.8099 49.06 31.1499 49.06V49.07Z" fill="white"/>
<path d="M28.8098 50.7C28.5298 50.7 28.1998 50.64 27.8298 50.53C27.0098 50.28 26.1398 49.77 25.5498 49.24C26.1098 49.62 26.7798 49.95 27.4198 50.14C27.8498 50.27 28.2598 50.34 28.5998 50.34C28.9998 50.34 29.3098 50.25 29.4798 50.08C29.5298 50.24 29.5298 50.37 29.4598 50.47C29.3598 50.62 29.1298 50.7 28.7998 50.7H28.8098Z" fill="white"/>
<path d="M47.8899 48.93C47.2699 48.93 46.7799 48.75 46.5099 48.42C46.3299 48.2 46.2599 47.93 46.2899 47.63C46.6299 48.03 47.2599 48.27 48.0499 48.27C48.3299 48.27 48.6199 48.24 48.9099 48.18C49.9299 47.98 50.9399 47.47 51.6199 46.82C51.1199 47.73 49.8599 48.6 48.5999 48.85C48.3499 48.9 48.1199 48.92 47.8899 48.92V48.93Z" fill="white"/>
<path d="M43.2899 51.93C42.5099 51.93 41.8699 51.74 41.5799 51.41C41.4799 51.3 41.4299 51.19 41.4199 51.06C41.8099 51.37 42.5199 51.56 43.3599 51.56C43.5899 51.56 43.8199 51.55 44.0599 51.52C45.0699 51.41 46.0599 51.06 46.7099 50.6C46.2599 51.21 45.0899 51.75 43.8799 51.89C43.6799 51.91 43.4899 51.92 43.2999 51.92L43.2899 51.93Z" fill="white"/>
<path d="M50.1899 50.48C49.9099 50.48 49.7099 50.41 49.6199 50.28C49.5399 50.16 49.5699 50.01 49.6199 49.88C49.7799 50.04 50.0499 50.12 50.4099 50.12C50.7699 50.12 51.16 50.04 51.6 49.9C52.19 49.71 52.79 49.4 53.32 49.04C52.73 49.55 51.9199 50.03 51.1699 50.29C50.7999 50.41 50.4699 50.48 50.1899 50.48Z" fill="white"/>
<path d="M23.8599 47.08C23.6399 47.08 23.3799 47.02 23.0999 46.9C22.3099 46.57 21.4499 45.86 20.8799 45.1C21.3999 45.6 22.0199 46.01 22.6099 46.25C22.9599 46.39 23.2899 46.46 23.5699 46.46C23.9599 46.46 24.2399 46.33 24.3999 46.09C24.4999 46.43 24.4999 46.7 24.3799 46.87C24.2599 47.05 24.0299 47.08 23.8699 47.08H23.8599Z" fill="white"/>
</svg>
