{
  "accessors": [
    {
      "bufferView": 2,
      "componentType": 5126,
      "count": 159,
      "max": [
        1.4453539848327637,
        5.124906063079834,
        19.224590301513672
      ],
      "min": [
        -1.4453539848327637,
        -1.0358580350875854,
        -1.0478529930114746
      ],
      "type": "VEC3"
    },
    {
      "bufferView": 2,
      "byteOffset": 1908,
      "componentType": 5126,
      "count": 159,
      "max": [
        1.0,
        0.9977372288703918,
        0.7875093817710876
      ],
      "min": [
        -1.0,
        -0.987618625164032,
        -0.995120108127594
      ],
      "type": "VEC3"
    },
    {
      "bufferView": 1,
      "componentType": 5126,
      "count": 159,
      "max": [
        0.875,
        1.0
      ],
      "min": [
        0.125,
        0.0
      ],
      "type": "VEC2"
    },
    {
      "bufferView": 0,
      "componentType": 5125,
      "count": 204,
      "type": "SCALAR"
    },
    {
      "bufferView": 2,
      "byteOffset": 3816,
      "componentType": 5126,
      "count": 65,
      "max": [
        0.6801974773406982,
        5.124906063079834,
        19.224590301513672
      ],
      "min": [
        -0.6801974773406982,
        2.9585180282592773,
        10.964099884033203
      ],
      "type": "VEC3"
    },
    {
      "bufferView": 2,
      "byteOffset": 4596,
      "componentType": 5126,
      "count": 65,
      "max": [
        1.0,
        0.9756380915641785,
        0.23608070611953735
      ],
      "min": [
        -1.0,
        -0.9717335104942322,
        -0.21938709914684296
      ],
      "type": "VEC3"
    },
    {
      "bufferView": 1,
      "byteOffset": 1272,
      "componentType": 5126,
      "count": 65,
      "max": [
        0.6250001192092896,
        1.0
      ],
      "min": [
        0.5245603919029236,
        0.0
      ],
      "type": "VEC2"
    },
    {
      "bufferView": 0,
      "byteOffset": 816,
      "componentType": 5125,
      "count": 72,
      "type": "SCALAR"
    },
    {
      "bufferView": 2,
      "byteOffset": 5376,
      "componentType": 5126,
      "count": 34,
      "max": [
        0.6801974773406982,
        4.219819068908691,
        15.47111988067627
      ],
      "min": [
        -0.6801974773406982,
        3.6890320777893066,
        14.209179878234863
      ],
      "type": "VEC3"
    },
    {
      "bufferView": 2,
      "byteOffset": 5784,
      "componentType": 5126,
      "count": 34,
      "max": [
        1.0,
        0.9756379723548889,
        0.23608079552650452
      ],
      "min": [
        -1.0,
        -0.9717335104942322,
        -0.2193874716758728
      ],
      "type": "VEC3"
    },
    {
      "bufferView": 1,
      "byteOffset": 1792,
      "componentType": 5126,
      "count": 34,
      "max": [
        0.5776476860046387,
        1.0
      ],
      "min": [
        0.5658066272735596,
        0.0
      ],
      "type": "VEC2"
    },
    {
      "bufferView": 0,
      "byteOffset": 1104,
      "componentType": 5125,
      "count": 36,
      "type": "SCALAR"
    },
    {
      "bufferView": 2,
      "byteOffset": 6192,
      "componentType": 5126,
      "count": 31,
      "max": [
        0.6801974773406982,
        0.9546350240707397,
        1.7897059917449951
      ],
      "min": [
        -0.6801974773406982,
        0.47835829854011536,
        0.1721314936876297
      ],
      "type": "VEC3"
    },
    {
      "bufferView": 2,
      "byteOffset": 6564,
      "componentType": 5126,
      "count": 31,
      "max": [
        1.0,
        0.9743872880935669,
        0.22931349277496338
      ],
      "min": [
        -1.0,
        -0.9733526110649109,
        -0.22487670183181763
      ],
      "type": "VEC3"
    },
    {
      "bufferView": 1,
      "byteOffset": 2064,
      "componentType": 5126,
      "count": 31,
      "max": [
        0.4039776921272278,
        1.0
      ],
      "min": [
        0.3880856931209564,
        0.0
      ],
      "type": "VEC2"
    },
    {
      "bufferView": 0,
      "byteOffset": 1248,
      "componentType": 5125,
      "count": 36,
      "type": "SCALAR"
    }
  ],
  "asset": {
    "extras": {
      "author": "JudeTolsen (https://sketchfab.com/JudeTolsen)",
      "license": "CC-BY-4.0 (http://creativecommons.org/licenses/by/4.0/)",
      "source": "https://sketchfab.com/3d-models/golf-club-526686289e1d4da1a149dd22ddcbd074",
      "title": "Golf Club"
    },
    "generator": "Sketchfab-12.97.0",
    "version": "2.0"
  },
  "bufferViews": [
    {
      "buffer": 0,
      "byteLength": 1392,
      "name": "floatBufferViews",
      "target": 34963
    },
    {
      "buffer": 0,
      "byteLength": 2312,
      "byteOffset": 1392,
      "byteStride": 8,
      "name": "floatBufferViews",
      "target": 34962
    },
    {
      "buffer": 0,
      "byteLength": 6936,
      "byteOffset": 3704,
      "byteStride": 12,
      "name": "floatBufferViews",
      "target": 34962
    }
  ],
  "buffers": [
    {
      "byteLength": 10640,
      "uri": "scene.bin"
    }
  ],
  "materials": [
    {
      "doubleSided": true,
      "name": "Material",
      "pbrMetallicRoughness": {
        "baseColorFactor": [
          0.539617,
          0.539617,
          0.539617,
          1.0
        ],
        "metallicFactor": 0.0,
        "roughnessFactor": 0.6
      }
    },
    {
      "doubleSided": true,
      "name": "Material.001",
      "pbrMetallicRoughness": {
        "baseColorFactor": [
          0.0,
          0.0,
          0.0,
          1.0
        ],
        "metallicFactor": 0.0,
        "roughnessFactor": 0.6
      }
    },
    {
      "doubleSided": true,
      "name": "Material.002",
      "pbrMetallicRoughness": {
        "baseColorFactor": [
          0.421224,
          0.588059,
          0.0399213,
          1.0
        ],
        "metallicFactor": 0.0,
        "roughnessFactor": 0.6
      }
    },
    {
      "doubleSided": true,
      "name": "Material.003",
      "pbrMetallicRoughness": {
        "metallicFactor": 0.0,
        "roughnessFactor": 0.6
      }
    }
  ],
  "meshes": [
    {
      "name": "Material-material",
      "primitives": [
        {
          "attributes": {
            "NORMAL": 1,
            "POSITION": 0,
            "TEXCOORD_0": 2
          },
          "indices": 3,
          "material": 0,
          "mode": 4
        }
      ]
    },
    {
      "name": "Material_001-material",
      "primitives": [
        {
          "attributes": {
            "NORMAL": 5,
            "POSITION": 4,
            "TEXCOORD_0": 6
          },
          "indices": 7,
          "material": 1,
          "mode": 4
        }
      ]
    },
    {
      "name": "Material_002-material",
      "primitives": [
        {
          "attributes": {
            "NORMAL": 9,
            "POSITION": 8,
            "TEXCOORD_0": 10
          },
          "indices": 11,
          "material": 2,
          "mode": 4
        }
      ]
    },
    {
      "name": "Material_003-material",
      "primitives": [
        {
          "attributes": {
            "NORMAL": 13,
            "POSITION": 12,
            "TEXCOORD_0": 14
          },
          "indices": 15,
          "material": 3,
          "mode": 4
        }
      ]
    }
  ],
  "nodes": [
    {
      "children": [
        1
      ],
      "matrix": [
        1.0,
        0.0,
        0.0,
        0.0,
        0.0,
        2.220446049250313e-16,
        -1.0,
        0.0,
        0.0,
        1.0,
        2.220446049250313e-16,
        0.0,
        0.0,
        0.0,
        0.0,
        1.0
      ],
      "name": "Sketchfab_model"
    },
    {
      "children": [
        2,
        7,
        9
      ],
      "name": "Collada visual scene group"
    },
    {
      "children": [
        3,
        4,
        5,
        6
      ],
      "matrix": [
        0.05489957,
        0.0,
        0.0,
        0.0,
        0.0,
        0.338811,
        0.0,
        0.0,
        0.0,
        0.0,
        0.1658685,
        0.0,
        0.0,
        -0.6984853,
        0.1309196,
        1.0
      ],
      "name": "Cube"
    },
    {
      "mesh": 0,
      "name": "Material-material"
    },
    {
      "mesh": 1,
      "name": "Material_001-material"
    },
    {
      "mesh": 2,
      "name": "Material_002-material"
    },
    {
      "mesh": 3,
      "name": "Material_003-material"
    },
    {
      "children": [
        8
      ],
      "matrix": [
        -0.2908646,
        0.9551712,
        -0.05518906,
        0.0,
        -0.7711008,
        -0.1998834,
        0.6045247,
        0.0,
        0.5663932,
        0.2183912,
        0.7946723,
        0.0,
        4.076245,
        1.005454,
        5.903862,
        1.0
      ],
      "name": "Light"
    },
    {
      "name": "Light"
    },
    {
      "children": [
        10
      ],
      "matrix": [
        0.6859207,
        0.7276763,
        0.0,
        0.0,
        -0.3240135,
        0.3054208,
        0.8953956,
        0.0,
        0.6515582,
        -0.6141704,
        0.4452714,
        0.0,
        7.358891,
        -6.925791,
        4.958309,
        1.0
      ],
      "name": "Camera"
    },
    {
      "name": "Camera-camera"
    }
  ],
  "scene": 0,
  "scenes": [
    {
      "name": "Sketchfab_Scene",
      "nodes": [
        0
      ]
    }
  ]
}
